<?xml version="1.0" encoding="utf-8"?>
<!-- Generator: Adobe Illustrator 19.1.0, SVG Export Plug-In . SVG Version: 6.00 Build 0)  -->
<!DOCTYPE svg PUBLIC "-//W3C//DTD SVG 1.1//EN" "http://www.w3.org/Graphics/SVG/1.1/DTD/svg11.dtd">
<svg version="1.1" id="Layer_1" xmlns="http://www.w3.org/2000/svg" xmlns:xlink="http://www.w3.org/1999/xlink" x="0px" y="0px"
	 viewBox="0 0 75 70" enable-background="new 0 0 75 70" xml:space="preserve">
<g fill="#464954">
	<path d="M17.5,28.7l-2-11.2h-1.1v11.2h-3.9V2h3.9C19,2,21,4.7,21,9.7c0,2.6-0.7,5-2.2,6.1l2.5,12.9H17.5z M14.4,13.8
		c0.5,0,1.3-0.1,1.9-0.6c0.6-0.5,1.1-1.5,1.1-3.4S16.8,7,16.2,6.5c-0.6-0.5-1.3-0.5-1.9-0.5V13.8z"/>
	<path d="M22.5,28.7l4-26.7h4.8l4,26.7h-3.8l-0.7-5.4H27l-0.7,5.4H22.5z M29.1,10.7L29,10h-0.2l-0.1,0.7l-1.1,8.4h2.7L29.1,10.7z"/>
	<path d="M34.9,6.1V2h11.3v4h-3.7v22.6h-3.9V6.1H34.9z"/>
	<path d="M47.8,2h3.9v26.7h-3.9V2z"/>
	<path d="M64.8,23.2c0,1.1-0.3,2.1-0.7,2.9c-0.3,0.7-0.8,1.4-1.6,2c-0.7,0.6-1.7,0.9-3,0.9c-1.3,0-2.3-0.3-3-0.9
		c-0.7-0.5-1.2-1.2-1.5-2c-0.4-0.8-0.6-1.8-0.7-2.9V7.5c0-1.1,0.3-2,0.7-2.9c0.3-0.7,0.8-1.5,1.5-2c0.7-0.5,1.7-0.9,3-0.9
		c1.3,0,2.3,0.4,3,0.9c0.7,0.5,1.2,1.3,1.6,2c0.4,0.8,0.6,1.8,0.7,2.9V23.2z M60.9,7.5c0-0.7-0.1-1.2-0.5-1.7
		c-0.2-0.2-0.5-0.3-0.8-0.3c-0.7,0-1,0.5-1.2,1c-0.1,0.3-0.1,0.6-0.1,1v15.7c0,0.8,0.2,1.3,0.5,1.7c0.2,0.2,0.4,0.3,0.8,0.3
		c0.7,0,1-0.4,1.2-1c0.1-0.3,0.1-0.6,0.1-1V7.5z"/>
</g>
<g fill="#9799a3">
	<path d="M13.6,45.1v-4H25v4h-3.7v22.6h-3.9V45.1H13.6z"/>
	<path d="M36.7,62.2c0,1.1-0.3,2.1-0.7,2.9c-0.3,0.7-0.8,1.4-1.6,2c-0.7,0.6-1.7,0.9-3,0.9c-1.3,0-2.3-0.3-3-0.9
		c-0.7-0.5-1.2-1.2-1.5-2c-0.4-0.8-0.6-1.8-0.7-2.9V46.5c0-1.1,0.3-2,0.7-2.9c0.3-0.7,0.8-1.5,1.5-2c0.7-0.5,1.7-0.9,3-0.9
		c1.3,0,2.3,0.4,3,0.9c0.7,0.5,1.2,1.3,1.6,2c0.4,0.8,0.6,1.8,0.7,2.9V62.2z M32.8,46.5c0-0.7-0.1-1.2-0.5-1.7
		c-0.2-0.2-0.5-0.3-0.8-0.3c-0.7,0-1,0.5-1.2,1c-0.1,0.3-0.1,0.6-0.1,1v15.7c0,0.8,0.2,1.3,0.5,1.7c0.2,0.2,0.4,0.3,0.8,0.3
		c0.7,0,1-0.4,1.2-1c0.1-0.3,0.1-0.6,0.1-1V46.5z"/>
	<path d="M49.5,62.2c0,1.1-0.3,2.1-0.7,2.9c-0.3,0.7-0.8,1.4-1.6,2c-0.7,0.6-1.7,0.9-3,0.9c-1.3,0-2.3-0.3-3-0.9
		c-0.7-0.5-1.2-1.2-1.5-2c-0.4-0.8-0.6-1.8-0.7-2.9V46.5c0-1.1,0.3-2,0.7-2.9c0.3-0.7,0.8-1.5,1.5-2c0.7-0.5,1.7-0.9,3-0.9
		c1.3,0,2.3,0.4,3,0.9c0.7,0.5,1.2,1.3,1.6,2c0.4,0.8,0.6,1.8,0.7,2.9V62.2z M45.6,46.5c0-0.7-0.1-1.2-0.5-1.7
		c-0.2-0.2-0.5-0.3-0.8-0.3c-0.7,0-1,0.5-1.2,1c-0.1,0.3-0.1,0.6-0.1,1v15.7c0,0.8,0.2,1.3,0.5,1.7c0.2,0.2,0.4,0.3,0.8,0.3
		c0.7,0,1-0.4,1.2-1c0.1-0.3,0.1-0.6,0.1-1V46.5z"/>
	<path d="M52.2,41h3.9v23h5.2v3.6h-9.1V41z"/>
</g>
<g>
	<rect x="2.5" y="33" width="70" height="4"/>
</g>
</svg>
